/* XPM */
static char *result[] = {
/* columns rows colors chars-per-pixel */
"18 14 10 1 ",
"  c #0C0E1A",
". c #21110D",
"X c #342319",
"o c #242A3D",
"O c #503625",
"+ c #755338",
"@ c #414B66",
"# c #677598",
"$ c #B6BEC8",
"% c None",
/* pixels */
"%%%%%%%%%%%%%%%%%%",
"%%..............%%",
"%.OO##OOOOOO##OO.%",
"%.++$$++++++$$++.%",
"%.++$$++++++$$++.%",
"%.O+$$++++++$$+O.%",
"%.OO##OOOOOO##OO.%",
"%.@####$$$$####@.%",
"  .X@@X@oo@X@@X.  ",
"  .X##O####O##X.  ",
"  .X##OOOOOO##X.  ",
"   .##OOOOOO##.   ",
"%%              %%",
"%%%%          %%%%"
};
