/* XPM */
static char *result[] = {
/* columns rows colors chars-per-pixel */
"32 32 8 1 ",
"  c #3D253B",
". c #523B40",
"X c #56587B",
"o c #802954",
"O c #895A45",
"+ c #BF704D",
"@ c #A7ACBA",
"# c None",
/* pixels */
"################################",
"############..####.XXX.#..XXXXX#",
"##########.XX.....XXX....XXXXX.#",
"#########.XXX..@@@@@@@@@@@@@@@X#",
"##@XXX.##.XX.@@@@@@@@@@@@@@@@@X#",
"#@@@XXX.....@@@@@@@@@@XXXXXXX.X#",
"#@@@@X.....@@@@@@@@@@@@@@X...X.#",
"#@@@@@X....@@@@@@@@@@@@@@XX....#",
"#@@@@@@XX..@@@@@@XXXXXXX.X.....#",
"#@@@@@@@XX.XXXXXX..XX..........#",
"#@@@@@@@@OOOOOOOOOOOOOOOOOOO...#",
"#@@@@@@@@OOOOOOOOOOOOOOOOOOO...#",
"#@@@@@@@@OOOOOOOOOOOOOOOOOOO...#",
"##@@@@@@@@OO.OOO.    OO.OOO...X#",
"##@@@@@@@@OOOOO .     OOOOO..XX#",
"##X@@@@@@@OOOO. .      OOOO..X@#",
"###X@@@@@@OOO.. .       OOO..@X#",
"###X@@@@@@OO++. .       OOO..XX#",
"####X@@@@@++++. .       OOO..XX#",
"#####@@@+++o++. .       OOO..X@#",
"#######++o+oo+. .       OOO..XX#",
"######@@+oooo+. .       OOO..XX#",
"####@@@@++o+++. .       OOO..X@#",
"###@@@@@++++O.. .       OOO.X@@#",
"###@@@@@++OOO.. .       OOO.X@@#",
"##@@@@@@@XOOO.. .       OOO.X@X#",
"##@@@@XXXXOOO.. .       OOO.XX@#",
"##XXXXXXXXOOO.. .       OOO.XXX#",
"##XXXXXX..OOO.. .       OOO...X#",
"##XXXXX...OOO.. XX      OOO...X#",
"###X......OOO..XXX      OOO...X#",
"################################"
};
