/* XPM */
static char *result[] = {
/* columns rows colors chars-per-pixel */
"32 32 8 1 ",
"  c #663F1B",
". c #753D1E",
"X c #724418",
"o c #834E18",
"O c #A2661F",
"+ c #915027",
"@ c #C88629",
"# c None",
/* pixels */
"####++++++++++++++++++++++++####",
"####++++++++++++++++++++++++####",
"####++++++++++++++++++++++++####",
"####++++++++++++++++++++++++####",
"####++++++++++++++++++++++++####",
"####++++++++++++++++++++++++####",
"####++++++++++++++++++++++++####",
"####++++++++++++++++++++++++####",
"####++++++++++++++++++++++++####",
"####++++++++++++++++++++++++####",
"####++++++++++++++++++++++++####",
"####++++++++++++++++++++++++####",
"####++++++++++++++++++++++++####",
"####++++++++++++++++++++++++####",
"####++++++++++++++++++++++++####",
"####++++++++++++++++++++  ++####",
"####+++++++++++++++++++ @@ +####",
"####++++++++++++++++++  XX +####",
"####+++++++++++++++++ O@@O +####",
"####++++++++++++++++++  XX +####",
"####++++++++++++++++++. oO +####",
"####++++++++++++++++++++  ++####",
"####++++++++++++++++++++++++####",
"####++++++++++++++++++++++++####",
"####++++++++++++++++++++++++####",
"####++++++++++++++++++++++++####",
"####++++++++++++++++++++++++####",
"####++++++++++++++++++++++++####",
"####++++++++++++++++++++++++####",
"####++++++++++++++++++++++++####",
"####++++++++++++++++++++++++####",
"####++++++++++++++++++++++++####"
};
