/* XPM */
static char *result[] = {
/* columns rows colors chars-per-pixel */
"45 47 93 2 ",
"   c #1A1613",
".  c #1C1815",
"X  c #1D1A16",
"o  c #1E1A17",
"O  c #1F1B17",
"+  c #201C18",
"@  c #211C18",
"#  c #211D19",
"$  c #221E1A",
"%  c #231E1A",
"&  c #241F1B",
"*  c #24201B",
"=  c #25201C",
"-  c #26211C",
";  c #26211D",
":  c #27221D",
">  c #28221E",
",  c #28231E",
"<  c #29241F",
"1  c #2A241F",
"2  c #2A251F",
"3  c #2B2520",
"4  c #2B2620",
"5  c #2C2621",
"6  c #2D2721",
"7  c #2D2722",
"8  c #2E2822",
"9  c #2F2923",
"0  c #302A24",
"q  c #312A24",
"w  c #322B25",
"e  c #322C26",
"r  c #332C26",
"t  c #332D26",
"y  c #342D27",
"u  c #342E27",
"i  c #352E27",
"p  c #352E28",
"a  c #383029",
"s  c #39312A",
"d  c #39322B",
"f  c #3A322B",
"g  c #3A332B",
"h  c #3A332C",
"j  c #3B332C",
"k  c #3B342C",
"l  c #3C342C",
"z  c #3C342D",
"x  c #3D352D",
"c  c #3D352E",
"v  c #3E352E",
"b  c #3E362E",
"n  c #3E362F",
"m  c #3F362F",
"M  c #3F372F",
"N  c #40372F",
"B  c #403730",
"V  c #403830",
"C  c #413830",
"Z  c #413931",
"A  c #423931",
"S  c #423A31",
"D  c #423A32",
"F  c #433A32",
"G  c #443B32",
"H  c #443B33",
"J  c #453C33",
"K  c #453C34",
"L  c #463C34",
"P  c #463D34",
"I  c #473D35",
"U  c #473E35",
"Y  c #483E35",
"T  c #483F36",
"R  c #493F36",
"E  c #494037",
"W  c #4A4037",
"Q  c #4A4137",
"!  c #4B4138",
"~  c #4C4238",
"^  c #4C4239",
"/  c #4D4239",
"(  c #4D4339",
")  c #4D433A",
"_  c #4E433A",
"`  c #4E443A",
"'  c #4F443B",
"]  c #4F453B",
"[  c #50453B",
"{  c #50453C",
"}  c #50463C",
"|  c #51463C",
" . c #52473D",
/* pixels */
"t < q : 2 t 1 : 5 1 4 < , 3 4 = ; 5 ; 4 < 5 8 $ t $ 5 3 < y : & 2 3 > > * = - 2 * $ & , 8 ",
"> 6 @ % % $ # 6 & - $ 1 3 7 3 5 5 2 = , 2 < , * < 5 & + 5 ; * ; 2 ; * & # & @ 5 2 < 8 3 , ",
"; 2 M n < A A 6 F A - V z , B b M 9 M F ; b F < H F $ M M 2 m x 3 A v ; B V ; F N , F A * ",
", 2 z m b M M V V B A z x Z F V c A J z H A J z V V V b c F V F H l M B H A J B V B b M # ",
", 6 6 D E T W Y Y W I U ! J P E ~ H H J J U Y T L H R ! T P ! R U E R W K Y T W U I J - : ",
"y 2 M H T b ` W ` ' ] ~ ]  .{ ) ' Q | } _ _ ^ ' b / ` ] ^ x _ | ! ' [ ^  .U [ _ ` P m A 1 ",
"* * M V F  .z T H A I R Y ^ E U U P R J W Y U j U U E P U Y h ! R R U E P U L ( _ K m V @ ",
"7 2 < c F | E j P I P W I ! U K E W ! J T E z T ! I P T R R G z T P T E K U I P ) Y Z q < ",
"7 4 F M U ' T U j ~ U T I G T T W R ! W U h H J Y K I H W Y P Y g U K I R E I W R I Z V 1 ",
"* 5 s b U ! I U U z E T U R P U E / U I z R U I E J G U I W F U K z Y E E T H L ~ ^ C x r ",
"* = $ m ! _ W R U E j ^ W G P E E J T z E W L F L K H U T E U R J ! j E ! G H E ] Y H i : ",
"5 > Z P P _ P E S P U z L U T R U U z H T U P R ^ G T ! R U I Y I T U z P U J W ` G d A ; ",
"* 4 m D W ' J ! E P K P j ! P L F l U W I L / ! U P P P J ! W E Y E Y R z W E T _ j C V : ",
"< $ 8 A J / H W R H / ! U R U P U U P ! ! Y T R Y U H U I E T U T T K ^ R W U J ) E V o ; ",
"3 2 A C I { Y Y G W R E ! J H H W T P R T Y P T U ! L E H K J K Y F Y T P U Y P _ I A H 3 ",
"5 : H A U ] T F U E T T L T I R I P J T T T Y E E F T E U T V P Y R J I T R I I W Y V v % ",
"< ; , C H ] T ! I L I P ~ I J G I U P ! ! R Y ^ H W P E U R Y J U P T U E ! T K ! R N C 3 ",
", 6 F C ! ] I G R T ! I z P H U W g F T J I I E U Y T E F I R P P W Y F d ^ U H ` z c % 7 ",
"4 2 C b T _ P I W U ! j Y W P F L ! h ! P E P E I T U _ H U A R L Y W j A E G E ~ P s A 3 ",
"3 3 , M I ] E F U T z ! U L G ! Y U Y j L K W T J U T U Y I P I T U j I A ^ H P ` T c d 4 ",
"6 = V A J } H Y E h T T W J ! U I ( ! L h P W W I W W W U E I T Y j ! W P U T U } Y V 6 u ",
"* - F F L ^ W P j U P W P P ! ! T R W I E z I U R I K ! T ! U E z P L I E K T W ! L P V o ",
"3 4 : A ^ ! T j I U ! K T W I R K R ! P L Y j U I T W K F U Y z L W P R U G U U ` U B M & ",
"< 7 F m H / z ^ W T U E K E H W T H Y E K Y P l E E Y W T H h R P W P E J ! Y R ^ H H 7 > ",
"y 4 x P W x I U E T Y I P P J W H J I E ~ W E F k I E U W j Y K J Z J I U I P J ( W V x , ",
", : 7 b I ^ R Y W K ! P U W J U J R W Y P J ! F K ! Y P F ! K T E T I H T U R P | J C C : ",
", 5 M C G ` W H P ! I E W Y R P Y E ! W R E P U W Y ! ^ I G K T E F T T T Z P H W U C : - ",
"; 2 J A P ! H / Y E E Y R R ! U P J P U Y H F T T P K A ! J R H Y U R P ! Y W U ] K C F > ",
"> > - A U _ R E I E W G H P R W ! U ! I P W T T Y L P T W T T W W E E T Y R P L Q J N G , ",
"y , m x U z R W H U R P ~ T ! Y P J L L W L U J h P G R R j E E K Y E I J E H I _ I A 2 ; ",
", 1 A A J ) j ! R P U ~ P U P A ! L E I H U Y z / U P T U T j ! H T U K W I K ! T ! z A 1 ",
"& w Z J Y [ U z W L T E T J H W ! Y E ~ T T h L H U W U G W P j T U P ! ! P T P ( J M M @ ",
"0 6 > M I W W H j U J T T ~ P G R L Y U K j J Y I I H T T A W C z H U R Y T S W ' P z # < ",
"2 = M c J / J J R j ! W L P H H E T Y R z W R H E ! H H ! P G U W j P T R H T ! ! U x V i ",
"> < z B ! ] I E P I j E G T R Y E Y ( z H U U W I I I L R H E P P ! j I R I W I _ I m d 5 ",
"2 - ; x E ( ! U T H U z J J U W T G f A P T U F E E G P K I K ) Y K U l W T T L R E s 2 7 ",
", 4 Z D I ~ T W T R R U j U U T L h R H U T W P R P E / R ~ P E I U Y W z P W L E j M a 9 ",
": ; V l E U E Y ! K U R J T U ! T K E / I U K E U J ! E S R U P U ~ K U R H R R J E M G 1 ",
"7 7 = A I ! U H E G E I H U K T H ! T P H I K P W Y H P I L P E A T ! Y E ~ W E ~ U J : > ",
"6 % M F L ) ` ! T R I / T U H P R U W F P ! U K W J E W E U ^ K G P Y W K R K _ ` E F C 6 ",
"> > b A K ( ( ' E / ` ( ` ) ! ) ! ^ T } / ( ` ~ ( ! _ / ` ~ | ] ` ~ ! Y ( T ) | ^ P b x > ",
"; 2 < D U P P J U / Y I j Y W L E z U P Y L I P ! H Y G T I E I ! ( B K z ! G K ( z F < , ",
"& 8 A H G V A M B C A f A C H x g m f m Z A V n b c M b b n z V B b Z s A H B x b V f A : ",
"= 3 N J 5 C c 5 C M e V x > G D 3 F M r K b ; P V 1 M F 2 V V C % b s 2 K z > J x @ H d > ",
"; 1 : % - 6 6 1 6 r < ; , * 0 , 8 > < 7 t 4 ; 1 = < , 8 8 2 4 ; < p > X 5 = 6 ; 2 & & % p ",
"7 - & 4 8 8 > > y , * * % 8 > 7 $ % < $ < y ; 6 = @ > > - . 4 : t < = 2 < + = 8 2 > * & 4 ",
"& X < : * > * y @ = - 5 1   1 1 * # O 7 7 5 t : $ 4 9 , < 2 7 y < 8 8 : ; 2 < 0 - 2 7 6 - "
};
