/* XPM */
static char *result[] = {
/* columns rows colors chars-per-pixel */
"32 32 4 1 ",
"  c #D1851E",
". c #FFD569",
"X c white",
"o c None",
/* pixels */
"oooooooooooooooooooooooooooooooo",
"oooooooooooooooooooooooooooooooo",
"oooooooooooooooooooooooooooooooo",
"ooooooooooooooooooooooooo.. oooo",
"oooooooooooooooooooooooo.... ooo",
"oooooooooooooooo.oooooo..... ooo",
"ooooooooooooooo.X.ooooXXXXXXXooo",
"oooooooooooooooo.ooooXXXXXXXXXoo",
"ooooooooooooooooooooXXXXX.XXXXXo",
"oooooooooooooooooooXXXXX...XXXXo",
"ooooooooooooooooooXXXXX..o..XXXo",
"ooooooooooooooooo.......ooo   oo",
"oooo oooooooooooXXXXXXXXXooooooo",
"ooo . oooooooooXXXXX.XXXXXoooooo",
"oooo ooooooooo.....   ....oooooo",
"ooooooooooooo.....  o  ...oooooo",
"oooooo.....o.....  ooo   ooooooo",
"oooo............  oooooooooooooo",
"ooo............  ooooooooooooooo",
"oo.....  ...... oooooooooooooooo",
"oo...      ....ooooooooooooooooo",
"o      ooo  ... oooooooooooooooo",
"o     ooooo     oooooooooooooooo",
"o    .ooooo   ..oooooooooooooooo",
"o    .ooooo   ..ooooooooo.oooooo",
"o    . ooo      oooooooo.X.ooooo",
"oo    ...      oooooooooo.oooooo",
"oo             ooooooooooooooooo",
"ooo           oooooooooooooooooo",
"oooo         ooooooooooooooooooo",
"oooooo     ooooooooooooooooooooo",
"oooooooooooooooooooooooooooooooo"
};
