/* XPM */
static char *result[] = {
/* columns rows colors chars-per-pixel */
"15 32 4 1 ",
"  c black",
". c #1F253A",
"X c #3F4A66",
"o c #677699",
/* pixels */
"ooo...oooo..Xoo",
"XXXo.oooXXX.ooo",
"XXXX.ooXXXX.oXX",
"XXXX.XXoXXX.XoX",
"XXX...XXXX...XX",
"oooX...........",
"oXXo.Xooooo...o",
"XoXXXooooooo.oX",
"XXXXoooXXXXo.XX",
"XXX.oXXXXXXX.XX",
".....XXXXXX....",
"..XooooX..ooooo",
"o.oooXXo.oooXXX",
"X.oXXXXX.oXXXXo",
"X..XXXX..XXXXXX",
"..........XXXXX",
"ooo...oooo..Xoo",
"XXXo.oooXXX.ooo",
"XXXX.ooXXXX.oXX",
"XXXX.XXoXXX.XoX",
"XXX...XXXX...XX",
"oooX...........",
"oXXo.Xoooo..Xoo",
"XXXXXoooooo.ooX",
"XXXXoooXXXX.oXX",
"XXX.oXXXXXX.XXX",
".....XXXXXX....",
"o.XooooX..ooooo",
"oXoooXXo.ooooXX",
"XXoXXXXX.oXXXoX",
"XX.XXXX..XXXXXX",
"               "
};
