/* XPM */
static char *result[] = {
/* columns rows colors chars-per-pixel */
"51 42 6 1 ",
"  c black",
". c #242A3D",
"X c #414B66",
"o c #677598",
"O c #8F9AB0",
"+ c None",
/* pixels */
"+++++++++++++++++++++++++++++++++++++++++++++++++++",
"++    ++   +    +   ++     +    +   ++        +++++",
"+ oooX  XXX oooX ooX  XoooX oooX ooX  ooXXoooo ++++",
" ooooo XoooXooooXooo XoooooXooooXooo oooXoooooo +++",
" oooooXoooooooooXoooXoooooooooooXoooXoooooooooo +++",
" Xoooo.oooooOooo.Xoo.oooooooOooo.Xoo.ooXooooooo +++",
" oooooXooOOoXOOXoooXXooOOOOoXOOXoooooXXooOOOOoo +++",
" OOOooXoOooO.XXOOoooXoOooooO.XXOOOOOOoXoOooooOo +++",
" oooo..Xoooo...oooo..Xoooooo...oooooo..Xoooooo. +++",
" oXXXX.oooXXo.oooXXX.ooooXXXo.oooooXXX.ooooXXXo +++",
" XXXXX.oXXXXX.ooXXXX.oXXXXXXX.oooXXXXX.oooXXXXX +++",
" XXXXX.XoXXXX.XXoXXX.XoXXXXXX.XXXXoXXX.XoXXXXXX +++",
" XXXX...XXXX...XXXX...XXXXXX...XXXXXX...XXXXXX  +++",
"  .......oooX...........ooooX.............oooo  +++",
"  ooo...ooXXo.Xooooo...oooXXo.Xooooooo...ooXXoo +++",
" ooooo.oXXoXXXooooooo.oXXXoXXXooooooooo.oXXXXXo +++",
" oXXXo.XXXXXXoooXXXXo.XXXXXXXoooXXXXXXo.XXXXXXX +++",
" XXXXX.XXXXX.oXXXXXXX.XXXXXX.oXXXXXXXXX.XXXXXXX +++",
" XXXX.........XXXXXX..........XXXXXXXX...XXXXX  +++",
"  ooooooo..XooooX..oooooo..XooooX..oooooo..Xooo +++",
" oooXXXXoo.oooXXo.oooXXXoo.oooXXo.oooXXXoo.oooX +++",
" oXXXXXoXX.oXXXXX.oXXXXoXX.oXXXXX.oXXXXoXX.oXXX +++",
" XXXXXXXXX..XXXX..XXXXXXXX..XXXX..XXXXXXXX..XXX +++",
"  XXXXXXX..........XXXXXX..........XXXXXX.....  +++",
" oooo..Xoooo...oooo..Xoooooo...oooooo..Xoooooo. +++",
" oXXXX.oooXXo.oooXXX.ooooXXXo.oooooXXX.ooooXXXo +++",
" XXXXX.oXXXXX.ooXXXX.oXXXXXXX.oooXXXXX.oooXXXXX +++",
" XXXXX.XoXXXX.XXoXXX.XoXXXXXX.XXXXoXXX.XoXXXXXX +++",
" XXXX...XXXX...XXXX...XXXXXX...XXXXXX...XXXXXX  +++",
"  .......oooX...........ooooX.............oooo  +++",
"  ooo...ooXXo.Xooooo...oooXXo.Xooooooo...ooXXoo +++",
" ooooo.oXXoXXXooooooo.oXXXXXXXooooooooo.oXXXXXo +++",
" oXXXo.XXXXXXoooXXXXo.XXXXXXXoooXXXXXXo.XXXXXXX +++",
" XXXXX.XXXXX.oXXXXXXX.XXXXXX.oXXXXXXXXX.XXXXXXX +++",
" XXXX.........XXXXXX..........XXXXXXXX...XXXXX  +++",
"  ooooooo..XooooX..oooooo..XooooX..oooooo..Xooo +++",
" oooXXXXoo.oooXXo.oooXXXoo.oooXXo.oooXXXoo.oooX +++",
" oXXXXXoXX.oXXXXX.oXXXXoXX.oXXXXX.oXXXXoXX.oXXX +++",
" XXXXXXXXX..XXXX..XXXXXXXX..XXXX..XXXXXXXX..XXX +++",
"+                                              ++++",
"+++++++++++++++++++++++++++++++++++++++++++++++++++",
"+++++++++++++++++++++++++++++++++++++++++++++++++++"
};
