/* XPM */
static char *result[] = {
/* columns rows colors chars-per-pixel */
"32 32 6 1 ",
"  c black",
". c #1F253A",
"X c #3F4A66",
"o c #677699",
"O c #909BB1",
"+ c None",
/* pixels */
"++    ++   +    +   ++     +  ++",
"+ oooX  XXX oooX ooX  XoooX oo +",
" ooooo XoooXooooXooo XoooooXooo ",
" oooooXoooooooooXoooXoooooooooo ",
" Xoooo.oooooOooo.Xoo.oooooooOoo ",
" oooooXooOOoXOOXoooXXooOOOOoXOO ",
" OOOooXoOooO.XXOOoooXoOooooO.XX ",
" oooo..Xoooo...oooo..Xoooooo... ",
" oXXXX.oooXXo.oooXXX.ooooXXXo.o ",
" XXXXX.oXXXXX.ooXXXX.oXXXXXXX.o ",
" XXXXX.XoXXXX.XXoXXX.XoXXXXXX.X ",
" XXXX...XXXX...XXXX...XXXXXX... ",
"  .......oooX...........ooooX.  ",
"  ooo...ooXXo.Xooooo...oooXXo.  ",
" ooooo.oXXoXXXooooooo.oXXXoXXXo ",
" oXXXo.XXXXXXoooXXXXo.XXXXXXXoo ",
" XXXXX.XXXXX.oXXXXXXX.XXXXXX.oX ",
" XXXX.........XXXXXX..........X ",
"  ooooooo..XooooX..oooooo..Xoo  ",
" oooXXXXoo.oooXXo.oooXXXoo.ooo  ",
" oXXXXXoXX.oXXXXX.oXXXXoXX.oXXX ",
" XXXXXXXXX..XXXX..XXXXXXXX..XXX ",
"  XXXXXXX..........XXXXXX...... ",
" oooo..Xoooo...oooo..Xoooooo... ",
" oXXXX.oooXXo.oooXXX.ooooXXXo.o ",
" XXXXX.oXXXXX.ooXXXX.oXXXXXXX.o ",
" XXXXX.XoXXXX.XXoXXX.XoXXXXXX.X ",
" XXXX...XXXX...XXXX...XXXXXX... ",
"  .......oooX...........ooooX.  ",
"  ooo...ooXXo.Xooooo...oooXXo.X ",
"  oooo.oXXoXXXooooooo.oXXXXXXX  ",
"+                              +"
};
